<svg xmlns="http://www.w3.org/2000/svg" viewBox="0 0 300 300" width="100%" height="100%">
  <!-- Outer orange scallop -->
  <path d="M 289.0,150.0 L 288.5,152.4 L 287.2,154.8 L 285.2,157.1 L 283.2,159.3 L 281.4,161.5 L 280.4,163.7 L 280.2,166.0 L 280.8,168.4 L 282.1,170.9 L 283.6,173.6 L 284.9,176.2 L 285.6,178.8 L 285.4,181.3 L 284.3,183.5 L 282.3,185.5 L 279.9,187.2 L 277.4,189.0 L 275.3,190.7 L 273.9,192.7 L 273.3,194.9 L 273.5,197.4 L 274.3,200.2 L 275.2,203.1 L 275.8,206.0 L 275.8,208.6 L 274.9,210.9 L 273.2,212.8 L 270.7,214.2 L 268.0,215.4 L 265.2,216.5 L 262.8,217.8 L 261.1,219.4 L 260.2,221.5 L 259.9,224.1 L 260.0,227.0 L 260.2,230.1 L 260.1,233.0 L 259.4,235.5 L 258.0,237.4 L 255.8,238.7 L 253.0,239.6 L 250.0,240.1 L 247.1,240.5 L 244.6,241.3 L 242.6,242.6 L 241.3,244.6 L 240.5,247.1 L 240.1,250.0 L 239.6,253.0 L 238.7,255.8 L 237.4,258.0 L 235.5,259.4 L 233.0,260.1 L 230.1,260.2 L 227.0,260.0 L 224.1,259.9 L 221.5,260.2 L 219.4,261.1 L 217.8,262.8 L 216.5,265.2 L 215.4,268.0 L 214.2,270.7 L 212.8,273.2 L 210.9,274.9 L 208.6,275.8 L 206.0,275.8 L 203.1,275.2 L 200.2,274.3 L 197.4,273.5 L 194.9,273.3 L 192.7,273.9 L 190.7,275.3 L 189.0,277.4 L 187.2,279.9 L 185.5,282.3 L 183.5,284.3 L 181.3,285.4 L 178.8,285.6 L 176.2,284.9 L 173.6,283.6 L 170.9,282.1 L 168.4,280.8 L 166.0,280.2 L 163.7,280.4 L 161.5,281.4 L 159.3,283.2 L 157.1,285.2 L 154.8,287.2 L 152.4,288.5 L 150.0,289.0 L 147.6,288.5 L 145.2,287.2 L 142.9,285.2 L 140.7,283.2 L 138.5,281.4 L 136.3,280.4 L 134.0,280.2 L 131.6,280.8 L 129.1,282.1 L 126.4,283.6 L 123.8,284.9 L 121.2,285.6 L 118.7,285.4 L 116.5,284.3 L 114.5,282.3 L 112.8,279.9 L 111.0,277.4 L 109.3,275.3 L 107.3,273.9 L 105.1,273.3 L 102.6,273.5 L 99.8,274.3 L 96.9,275.2 L 94.0,275.8 L 91.4,275.8 L 89.1,274.9 L 87.2,273.2 L 85.8,270.7 L 84.6,268.0 L 83.5,265.2 L 82.2,262.8 L 80.6,261.1 L 78.5,260.2 L 75.9,259.9 L 73.0,260.0 L 69.9,260.2 L 67.0,260.1 L 64.5,259.4 L 62.6,258.0 L 61.3,255.8 L 60.4,253.0 L 59.9,250.0 L 59.5,247.1 L 58.7,244.6 L 57.4,242.6 L 55.4,241.3 L 52.9,240.5 L 50.0,240.1 L 47.0,239.6 L 44.2,238.7 L 42.0,237.4 L 40.6,235.5 L 39.9,233.0 L 39.8,230.1 L 40.0,227.0 L 40.1,224.1 L 39.8,221.5 L 38.9,219.4 L 37.2,217.8 L 34.8,216.5 L 32.0,215.4 L 29.3,214.2 L 26.8,212.8 L 25.1,210.9 L 24.2,208.6 L 24.2,206.0 L 24.8,203.1 L 25.7,200.2 L 26.5,197.4 L 26.7,194.9 L 26.1,192.7 L 24.7,190.7 L 22.6,189.0 L 20.1,187.2 L 17.7,185.5 L 15.7,183.5 L 14.6,181.3 L 14.4,178.8 L 15.1,176.2 L 16.4,173.6 L 17.9,170.9 L 19.2,168.4 L 19.8,166.0 L 19.6,163.7 L 18.6,161.5 L 16.8,159.3 L 14.8,157.1 L 12.8,154.8 L 11.5,152.4 L 11.0,150.0 L 11.5,147.6 L 12.8,145.2 L 14.8,142.9 L 16.8,140.7 L 18.6,138.5 L 19.6,136.3 L 19.8,134.0 L 19.2,131.6 L 17.9,129.1 L 16.4,126.4 L 15.1,123.8 L 14.4,121.2 L 14.6,118.7 L 15.7,116.5 L 17.7,114.5 L 20.1,112.8 L 22.6,111.0 L 24.7,109.3 L 26.1,107.3 L 26.7,105.1 L 26.5,102.6 L 25.7,99.8 L 24.8,96.9 L 24.2,94.0 L 24.2,91.4 L 25.1,89.1 L 26.8,87.2 L 29.3,85.8 L 32.0,84.6 L 34.8,83.5 L 37.2,82.2 L 38.9,80.6 L 39.8,78.5 L 40.1,75.9 L 40.0,73.0 L 39.8,69.9 L 39.9,67.0 L 40.6,64.5 L 42.0,62.6 L 44.2,61.3 L 47.0,60.4 L 50.0,59.9 L 52.9,59.5 L 55.4,58.7 L 57.4,57.4 L 58.7,55.4 L 59.5,52.9 L 59.9,50.0 L 60.4,47.0 L 61.3,44.2 L 62.6,42.0 L 64.5,40.6 L 67.0,39.9 L 69.9,39.8 L 73.0,40.0 L 75.9,40.1 L 78.5,39.8 L 80.6,38.9 L 82.2,37.2 L 83.5,34.8 L 84.6,32.0 L 85.8,29.3 L 87.2,26.8 L 89.1,25.1 L 91.4,24.2 L 94.0,24.2 L 96.9,24.8 L 99.8,25.7 L 102.6,26.5 L 105.1,26.7 L 107.3,26.1 L 109.3,24.7 L 111.0,22.6 L 112.8,20.1 L 114.5,17.7 L 116.5,15.7 L 118.7,14.6 L 121.2,14.4 L 123.8,15.1 L 126.4,16.4 L 129.1,17.9 L 131.6,19.2 L 134.0,19.8 L 136.3,19.6 L 138.5,18.6 L 140.7,16.8 L 142.9,14.8 L 145.2,12.8 L 147.6,11.5 L 150.0,11.0 L 152.4,11.5 L 154.8,12.8 L 157.1,14.8 L 159.3,16.8 L 161.5,18.6 L 163.7,19.6 L 166.0,19.8 L 168.4,19.2 L 170.9,17.9 L 173.6,16.4 L 176.2,15.1 L 178.8,14.4 L 181.3,14.6 L 183.5,15.7 L 185.5,17.7 L 187.2,20.1 L 189.0,22.6 L 190.7,24.7 L 192.7,26.1 L 194.9,26.7 L 197.4,26.5 L 200.2,25.7 L 203.1,24.8 L 206.0,24.2 L 208.6,24.2 L 210.9,25.1 L 212.8,26.8 L 214.2,29.3 L 215.4,32.0 L 216.5,34.8 L 217.8,37.2 L 219.4,38.9 L 221.5,39.8 L 224.1,40.1 L 227.0,40.0 L 230.1,39.8 L 233.0,39.9 L 235.5,40.6 L 237.4,42.0 L 238.7,44.2 L 239.6,47.0 L 240.1,50.0 L 240.5,52.9 L 241.3,55.4 L 242.6,57.4 L 244.6,58.7 L 247.1,59.5 L 250.0,59.9 L 253.0,60.4 L 255.8,61.3 L 258.0,62.6 L 259.4,64.5 L 260.1,67.0 L 260.2,69.9 L 260.0,73.0 L 259.9,75.9 L 260.2,78.5 L 261.1,80.6 L 262.8,82.2 L 265.2,83.5 L 268.0,84.6 L 270.7,85.8 L 273.2,87.2 L 274.9,89.1 L 275.8,91.4 L 275.8,94.0 L 275.2,96.9 L 274.3,99.8 L 273.5,102.6 L 273.3,105.1 L 273.9,107.3 L 275.3,109.3 L 277.4,111.0 L 279.9,112.8 L 282.3,114.5 L 284.3,116.5 L 285.4,118.7 L 285.6,121.2 L 284.9,123.8 L 283.6,126.4 L 282.1,129.1 L 280.8,131.6 L 280.2,134.0 L 280.4,136.3 L 281.4,138.5 L 283.2,140.7 L 285.2,142.9 L 287.2,145.2 L 288.5,147.6 Z" fill="#f39223" />
  
  <!-- Inner white circular background -->
  <circle cx="150" cy="150" r="120" fill="#ffffff" />
  
  <!-- Outer thin dark green border -->
  <circle cx="150" cy="150" r="112" fill="none" stroke="#122b07" stroke-width="3" />
  
  <!-- Inner thin dark green border -->
  <circle cx="150" cy="150" r="76" fill="none" stroke="#122b07" stroke-width="3" />
  
  <!-- Text paths optimized to center the text exactly between the inner (R=76) and outer (R=112) borders -->
  <!-- Top text path (clockwise, R=86) -->
  <path id="text-path-top" d="M 64,150 A 86,86 0 0,1 236,150" fill="none" />
  <!-- Bottom text path (counter-clockwise, R=102) -->
  <path id="text-path-bottom" d="M 48,150 A 102,102 0 0,0 252,150" fill="none" />
  
  <!-- Text elements (Montserrat, bold 900, with stroke for extra boldness) -->
  <text fill="#122b07" stroke="#122b07" stroke-width="1.2" stroke-linejoin="round" font-family="'Montserrat', sans-serif" font-weight="900" font-size="20.5" letter-spacing="1.0">
    <textPath href="#text-path-top" startOffset="50%" text-anchor="middle">
      ONLINE KEUZEHULP
    </textPath>
  </text>
  
  <text fill="#122b07" stroke="#122b07" stroke-width="1.2" stroke-linejoin="round" font-family="'Montserrat', sans-serif" font-weight="900" font-size="21.5" letter-spacing="4.0">
    <textPath href="#text-path-bottom" startOffset="50%" text-anchor="middle">
      STAOPSTOELEN.NL
    </textPath>
  </text>
  
  <!-- Bullets/Dots separating top and bottom text (wiskundig gecentreerd) -->
  <circle cx="56.1" cy="153.7" r="6" fill="#f39223" stroke="#122b07" stroke-width="1.5" />
  <circle cx="243.9" cy="153.7" r="6" fill="#f39223" stroke="#122b07" stroke-width="1.5" />
  
  <!-- Center choice question mark (clean bold green, no outline, matching checkmark style) -->
  <path d="M 132,128 C 132,103 168,103 168,128 C 168,144 150,144 150,161" fill="none" stroke="#4b8f24" stroke-width="20" stroke-linecap="round" stroke-linejoin="round" />
  <circle cx="150" cy="186" r="10" fill="#4b8f24" />
</svg>
